solid dead_zone_boundary_frame
  facet normal 0 0 0
    outer loop
      vertex 6 1 0.0
      vertex 219 2 0.0
      vertex 219 1 0.0
    endloop
  endfacet
  facet normal 0 0 0
    outer loop
      vertex 6 1 0.0
      vertex 6 2 0.0
      vertex 219 2 0.0
    endloop
  endfacet
  facet normal 0 0 0
    outer loop
      vertex 6 1 0.2
      vertex 219 1 0.2
      vertex 219 2 0.2
    endloop
  endfacet
  facet normal 0 0 0
    outer loop
      vertex 6 1 0.2
      vertex 219 2 0.2
      vertex 6 2 0.2
    endloop
  endfacet
  facet normal 0 0 0
    outer loop
      vertex 6 1 0.0
      vertex 219 1 0.0
      vertex 219 1 0.2
    endloop
  endfacet
  facet normal 0 0 0
    outer loop
      vertex 6 1 0.0
      vertex 219 1 0.2
      vertex 6 1 0.2
    endloop
  endfacet
  facet normal 0 0 0
    outer loop
      vertex 6 2 0.0
      vertex 6 2 0.2
      vertex 219 2 0.2
    endloop
  endfacet
  facet normal 0 0 0
    outer loop
      vertex 6 2 0.0
      vertex 219 2 0.2
      vertex 219 2 0.0
    endloop
  endfacet
  facet normal 0 0 0
    outer loop
      vertex 6 1 0.0
      vertex 6 1 0.2
      vertex 6 2 0.2
    endloop
  endfacet
  facet normal 0 0 0
    outer loop
      vertex 6 1 0.0
      vertex 6 2 0.2
      vertex 6 2 0.0
    endloop
  endfacet
  facet normal 0 0 0
    outer loop
      vertex 219 1 0.0
      vertex 219 2 0.0
      vertex 219 2 0.2
    endloop
  endfacet
  facet normal 0 0 0
    outer loop
      vertex 219 1 0.0
      vertex 219 2 0.2
      vertex 219 1 0.2
    endloop
  endfacet
  facet normal 0 0 0
    outer loop
      vertex 218 1 0.0
      vertex 219 209 0.0
      vertex 219 1 0.0
    endloop
  endfacet
  facet normal 0 0 0
    outer loop
      vertex 218 1 0.0
      vertex 218 209 0.0
      vertex 219 209 0.0
    endloop
  endfacet
  facet normal 0 0 0
    outer loop
      vertex 218 1 0.2
      vertex 219 1 0.2
      vertex 219 209 0.2
    endloop
  endfacet
  facet normal 0 0 0
    outer loop
      vertex 218 1 0.2
      vertex 219 209 0.2
      vertex 218 209 0.2
    endloop
  endfacet
  facet normal 0 0 0
    outer loop
      vertex 218 1 0.0
      vertex 219 1 0.0
      vertex 219 1 0.2
    endloop
  endfacet
  facet normal 0 0 0
    outer loop
      vertex 218 1 0.0
      vertex 219 1 0.2
      vertex 218 1 0.2
    endloop
  endfacet
  facet normal 0 0 0
    outer loop
      vertex 218 209 0.0
      vertex 218 209 0.2
      vertex 219 209 0.2
    endloop
  endfacet
  facet normal 0 0 0
    outer loop
      vertex 218 209 0.0
      vertex 219 209 0.2
      vertex 219 209 0.0
    endloop
  endfacet
  facet normal 0 0 0
    outer loop
      vertex 218 1 0.0
      vertex 218 1 0.2
      vertex 218 209 0.2
    endloop
  endfacet
  facet normal 0 0 0
    outer loop
      vertex 218 1 0.0
      vertex 218 209 0.2
      vertex 218 209 0.0
    endloop
  endfacet
  facet normal 0 0 0
    outer loop
      vertex 219 1 0.0
      vertex 219 209 0.0
      vertex 219 209 0.2
    endloop
  endfacet
  facet normal 0 0 0
    outer loop
      vertex 219 1 0.0
      vertex 219 209 0.2
      vertex 219 1 0.2
    endloop
  endfacet
  facet normal 0 0 0
    outer loop
      vertex 6 1 0.0
      vertex 7 209 0.0
      vertex 7 1 0.0
    endloop
  endfacet
  facet normal 0 0 0
    outer loop
      vertex 6 1 0.0
      vertex 6 209 0.0
      vertex 7 209 0.0
    endloop
  endfacet
  facet normal 0 0 0
    outer loop
      vertex 6 1 0.2
      vertex 7 1 0.2
      vertex 7 209 0.2
    endloop
  endfacet
  facet normal 0 0 0
    outer loop
      vertex 6 1 0.2
      vertex 7 209 0.2
      vertex 6 209 0.2
    endloop
  endfacet
  facet normal 0 0 0
    outer loop
      vertex 6 1 0.0
      vertex 7 1 0.0
      vertex 7 1 0.2
    endloop
  endfacet
  facet normal 0 0 0
    outer loop
      vertex 6 1 0.0
      vertex 7 1 0.2
      vertex 6 1 0.2
    endloop
  endfacet
  facet normal 0 0 0
    outer loop
      vertex 6 209 0.0
      vertex 6 209 0.2
      vertex 7 209 0.2
    endloop
  endfacet
  facet normal 0 0 0
    outer loop
      vertex 6 209 0.0
      vertex 7 209 0.2
      vertex 7 209 0.0
    endloop
  endfacet
  facet normal 0 0 0
    outer loop
      vertex 6 1 0.0
      vertex 6 1 0.2
      vertex 6 209 0.2
    endloop
  endfacet
  facet normal 0 0 0
    outer loop
      vertex 6 1 0.0
      vertex 6 209 0.2
      vertex 6 209 0.0
    endloop
  endfacet
  facet normal 0 0 0
    outer loop
      vertex 7 1 0.0
      vertex 7 209 0.0
      vertex 7 209 0.2
    endloop
  endfacet
  facet normal 0 0 0
    outer loop
      vertex 7 1 0.0
      vertex 7 209 0.2
      vertex 7 1 0.2
    endloop
  endfacet
  facet normal 0 0 0
    outer loop
      vertex 6 208 0.0
      vertex 83 209 0.0
      vertex 83 208 0.0
    endloop
  endfacet
  facet normal 0 0 0
    outer loop
      vertex 6 208 0.0
      vertex 6 209 0.0
      vertex 83 209 0.0
    endloop
  endfacet
  facet normal 0 0 0
    outer loop
      vertex 6 208 0.2
      vertex 83 208 0.2
      vertex 83 209 0.2
    endloop
  endfacet
  facet normal 0 0 0
    outer loop
      vertex 6 208 0.2
      vertex 83 209 0.2
      vertex 6 209 0.2
    endloop
  endfacet
  facet normal 0 0 0
    outer loop
      vertex 6 208 0.0
      vertex 83 208 0.0
      vertex 83 208 0.2
    endloop
  endfacet
  facet normal 0 0 0
    outer loop
      vertex 6 208 0.0
      vertex 83 208 0.2
      vertex 6 208 0.2
    endloop
  endfacet
  facet normal 0 0 0
    outer loop
      vertex 6 209 0.0
      vertex 6 209 0.2
      vertex 83 209 0.2
    endloop
  endfacet
  facet normal 0 0 0
    outer loop
      vertex 6 209 0.0
      vertex 83 209 0.2
      vertex 83 209 0.0
    endloop
  endfacet
  facet normal 0 0 0
    outer loop
      vertex 6 208 0.0
      vertex 6 208 0.2
      vertex 6 209 0.2
    endloop
  endfacet
  facet normal 0 0 0
    outer loop
      vertex 6 208 0.0
      vertex 6 209 0.2
      vertex 6 209 0.0
    endloop
  endfacet
  facet normal 0 0 0
    outer loop
      vertex 83 208 0.0
      vertex 83 209 0.0
      vertex 83 209 0.2
    endloop
  endfacet
  facet normal 0 0 0
    outer loop
      vertex 83 208 0.0
      vertex 83 209 0.2
      vertex 83 208 0.2
    endloop
  endfacet
  facet normal 0 0 0
    outer loop
      vertex 167 208 0.0
      vertex 219 209 0.0
      vertex 219 208 0.0
    endloop
  endfacet
  facet normal 0 0 0
    outer loop
      vertex 167 208 0.0
      vertex 167 209 0.0
      vertex 219 209 0.0
    endloop
  endfacet
  facet normal 0 0 0
    outer loop
      vertex 167 208 0.2
      vertex 219 208 0.2
      vertex 219 209 0.2
    endloop
  endfacet
  facet normal 0 0 0
    outer loop
      vertex 167 208 0.2
      vertex 219 209 0.2
      vertex 167 209 0.2
    endloop
  endfacet
  facet normal 0 0 0
    outer loop
      vertex 167 208 0.0
      vertex 219 208 0.0
      vertex 219 208 0.2
    endloop
  endfacet
  facet normal 0 0 0
    outer loop
      vertex 167 208 0.0
      vertex 219 208 0.2
      vertex 167 208 0.2
    endloop
  endfacet
  facet normal 0 0 0
    outer loop
      vertex 167 209 0.0
      vertex 167 209 0.2
      vertex 219 209 0.2
    endloop
  endfacet
  facet normal 0 0 0
    outer loop
      vertex 167 209 0.0
      vertex 219 209 0.2
      vertex 219 209 0.0
    endloop
  endfacet
  facet normal 0 0 0
    outer loop
      vertex 167 208 0.0
      vertex 167 208 0.2
      vertex 167 209 0.2
    endloop
  endfacet
  facet normal 0 0 0
    outer loop
      vertex 167 208 0.0
      vertex 167 209 0.2
      vertex 167 209 0.0
    endloop
  endfacet
  facet normal 0 0 0
    outer loop
      vertex 219 208 0.0
      vertex 219 209 0.0
      vertex 219 209 0.2
    endloop
  endfacet
  facet normal 0 0 0
    outer loop
      vertex 219 208 0.0
      vertex 219 209 0.2
      vertex 219 208 0.2
    endloop
  endfacet
  facet normal 0 0 0
    outer loop
      vertex 83 203 0.0
      vertex 84 209 0.0
      vertex 84 203 0.0
    endloop
  endfacet
  facet normal 0 0 0
    outer loop
      vertex 83 203 0.0
      vertex 83 209 0.0
      vertex 84 209 0.0
    endloop
  endfacet
  facet normal 0 0 0
    outer loop
      vertex 83 203 0.2
      vertex 84 203 0.2
      vertex 84 209 0.2
    endloop
  endfacet
  facet normal 0 0 0
    outer loop
      vertex 83 203 0.2
      vertex 84 209 0.2
      vertex 83 209 0.2
    endloop
  endfacet
  facet normal 0 0 0
    outer loop
      vertex 83 203 0.0
      vertex 84 203 0.0
      vertex 84 203 0.2
    endloop
  endfacet
  facet normal 0 0 0
    outer loop
      vertex 83 203 0.0
      vertex 84 203 0.2
      vertex 83 203 0.2
    endloop
  endfacet
  facet normal 0 0 0
    outer loop
      vertex 83 209 0.0
      vertex 83 209 0.2
      vertex 84 209 0.2
    endloop
  endfacet
  facet normal 0 0 0
    outer loop
      vertex 83 209 0.0
      vertex 84 209 0.2
      vertex 84 209 0.0
    endloop
  endfacet
  facet normal 0 0 0
    outer loop
      vertex 83 203 0.0
      vertex 83 203 0.2
      vertex 83 209 0.2
    endloop
  endfacet
  facet normal 0 0 0
    outer loop
      vertex 83 203 0.0
      vertex 83 209 0.2
      vertex 83 209 0.0
    endloop
  endfacet
  facet normal 0 0 0
    outer loop
      vertex 84 203 0.0
      vertex 84 209 0.0
      vertex 84 209 0.2
    endloop
  endfacet
  facet normal 0 0 0
    outer loop
      vertex 84 203 0.0
      vertex 84 209 0.2
      vertex 84 203 0.2
    endloop
  endfacet
  facet normal 0 0 0
    outer loop
      vertex 166 203 0.0
      vertex 167 209 0.0
      vertex 167 203 0.0
    endloop
  endfacet
  facet normal 0 0 0
    outer loop
      vertex 166 203 0.0
      vertex 166 209 0.0
      vertex 167 209 0.0
    endloop
  endfacet
  facet normal 0 0 0
    outer loop
      vertex 166 203 0.2
      vertex 167 203 0.2
      vertex 167 209 0.2
    endloop
  endfacet
  facet normal 0 0 0
    outer loop
      vertex 166 203 0.2
      vertex 167 209 0.2
      vertex 166 209 0.2
    endloop
  endfacet
  facet normal 0 0 0
    outer loop
      vertex 166 203 0.0
      vertex 167 203 0.0
      vertex 167 203 0.2
    endloop
  endfacet
  facet normal 0 0 0
    outer loop
      vertex 166 203 0.0
      vertex 167 203 0.2
      vertex 166 203 0.2
    endloop
  endfacet
  facet normal 0 0 0
    outer loop
      vertex 166 209 0.0
      vertex 166 209 0.2
      vertex 167 209 0.2
    endloop
  endfacet
  facet normal 0 0 0
    outer loop
      vertex 166 209 0.0
      vertex 167 209 0.2
      vertex 167 209 0.0
    endloop
  endfacet
  facet normal 0 0 0
    outer loop
      vertex 166 203 0.0
      vertex 166 203 0.2
      vertex 166 209 0.2
    endloop
  endfacet
  facet normal 0 0 0
    outer loop
      vertex 166 203 0.0
      vertex 166 209 0.2
      vertex 166 209 0.0
    endloop
  endfacet
  facet normal 0 0 0
    outer loop
      vertex 167 203 0.0
      vertex 167 209 0.0
      vertex 167 209 0.2
    endloop
  endfacet
  facet normal 0 0 0
    outer loop
      vertex 167 203 0.0
      vertex 167 209 0.2
      vertex 167 203 0.2
    endloop
  endfacet
  facet normal 0 0 0
    outer loop
      vertex 83 203 0.0
      vertex 167 204 0.0
      vertex 167 203 0.0
    endloop
  endfacet
  facet normal 0 0 0
    outer loop
      vertex 83 203 0.0
      vertex 83 204 0.0
      vertex 167 204 0.0
    endloop
  endfacet
  facet normal 0 0 0
    outer loop
      vertex 83 203 0.2
      vertex 167 203 0.2
      vertex 167 204 0.2
    endloop
  endfacet
  facet normal 0 0 0
    outer loop
      vertex 83 203 0.2
      vertex 167 204 0.2
      vertex 83 204 0.2
    endloop
  endfacet
  facet normal 0 0 0
    outer loop
      vertex 83 203 0.0
      vertex 167 203 0.0
      vertex 167 203 0.2
    endloop
  endfacet
  facet normal 0 0 0
    outer loop
      vertex 83 203 0.0
      vertex 167 203 0.2
      vertex 83 203 0.2
    endloop
  endfacet
  facet normal 0 0 0
    outer loop
      vertex 83 204 0.0
      vertex 83 204 0.2
      vertex 167 204 0.2
    endloop
  endfacet
  facet normal 0 0 0
    outer loop
      vertex 83 204 0.0
      vertex 167 204 0.2
      vertex 167 204 0.0
    endloop
  endfacet
  facet normal 0 0 0
    outer loop
      vertex 83 203 0.0
      vertex 83 203 0.2
      vertex 83 204 0.2
    endloop
  endfacet
  facet normal 0 0 0
    outer loop
      vertex 83 203 0.0
      vertex 83 204 0.2
      vertex 83 204 0.0
    endloop
  endfacet
  facet normal 0 0 0
    outer loop
      vertex 167 203 0.0
      vertex 167 204 0.0
      vertex 167 204 0.2
    endloop
  endfacet
  facet normal 0 0 0
    outer loop
      vertex 167 203 0.0
      vertex 167 204 0.2
      vertex 167 203 0.2
    endloop
  endfacet
endsolid dead_zone_boundary_frame